# xmcd CD database file
#
# Track frame offsets:
#	150
#	17756
#	41206
#	55675
#	74754
#	94888
#	109085
#	125882
#	141879
#	162278
#	178186
#	191852
#
# Disc length: 2840 seconds
#
# Revision: 4
# Processed by: cddbd v1.5.2PL0 Copyright (c) Steve Scherf et al.
# Submitted via: Feurio! 1.68 - http://www.feurio.com
#
DISCID=ba0b160c
DTITLE=John Jaworowicz' Blues Colective - Muddy Waters Fever
DYEAR=2001
DGENRE=BLUES
TTITLE0=Muddy Waters Fever
TTITLE1=Back Door Man
TTITLE2=Before The Bullets Fly
TTITLE3=Who To Believe
TTITLE4=Kindness For Weakness
TTITLE5=Why Can't I Get Lucky With You ?
TTITLE6=Shake You Down
TTITLE7=The Eyes Don't Lie
TTITLE8=When The Blues Come Knockin'
TTITLE9=Dirty Deals
TTITLE10=Give Me Some Slack
TTITLE11=So Wrong For So Long
EXTD=
EXTT0=
EXTT1=
EXTT2=
EXTT3=
EXTT4=
EXTT5=
EXTT6=
EXTT7=
EXTT8=
EXTT9=
EXTT10=
EXTT11=
PLAYORDER=
